<svg width="220" height="222" viewBox="0 0 220 222" fill="none" xmlns="http://www.w3.org/2000/svg">
<g id="&#240;&#159;&#166;&#134; icon &#34;check-circle&#34;">
<path id="Vector" d="M139.92 75.369L92.73 123.099L74.58 104.784C73.5939 103.622 72.3804 102.678 71.0157 102.012C69.651 101.346 68.1645 100.971 66.6496 100.912C65.1347 100.853 63.6241 101.111 62.2125 101.669C60.8009 102.227 59.5189 103.073 58.4469 104.155C57.3749 105.237 56.536 106.531 55.983 107.955C55.43 109.379 55.1747 110.904 55.2333 112.432C55.2918 113.961 55.6628 115.461 56.3231 116.838C56.9833 118.215 57.9185 119.44 59.07 120.435L84.92 146.631C85.9479 147.66 87.1668 148.474 88.5071 149.026C89.8473 149.578 91.2824 149.858 92.73 149.85C95.6158 149.838 98.3812 148.682 100.43 146.631L155.43 91.131C156.461 90.0991 157.279 88.8714 157.838 87.5188C158.396 86.1661 158.684 84.7153 158.684 83.25C158.684 81.7846 158.396 80.3338 157.838 78.9812C157.279 77.6285 156.461 76.4009 155.43 75.369C153.369 73.3016 150.581 72.1412 147.675 72.1412C144.769 72.1412 141.981 73.3016 139.92 75.369ZM110 0C88.2441 0 66.9767 6.51003 48.8873 18.7069C30.7979 30.9037 16.6989 48.2395 8.3733 68.5221C0.0476612 88.8047 -2.13071 111.123 2.11367 132.655C6.35804 154.187 16.8345 173.965 32.2183 189.489C47.6021 205.012 67.2022 215.584 88.5401 219.867C109.878 224.15 131.995 221.952 152.095 213.551C172.195 205.149 189.375 190.922 201.462 172.668C213.549 154.414 220 132.954 220 111C220 96.4232 217.155 81.9893 211.627 68.5221C206.099 55.055 197.996 42.8184 187.782 32.5111C177.567 22.2038 165.441 14.0276 152.095 8.44937C138.749 2.8711 124.445 0 110 0ZM110 199.8C92.5953 199.8 75.5814 194.592 61.1099 184.834C46.6383 175.077 35.3592 161.208 28.6986 144.982C22.0381 128.756 20.2954 110.901 23.6909 93.676C27.0864 76.4504 35.4676 60.6278 47.7746 48.2089C60.0817 35.79 75.7618 27.3326 92.8321 23.9063C109.902 20.4799 127.596 22.2384 143.676 28.9595C159.756 35.6805 173.5 47.0623 183.169 61.6653C192.839 76.2684 198 93.437 198 111C198 134.551 188.729 157.138 172.225 173.791C155.722 190.444 133.339 199.8 110 199.8Z" fill="black"/>
</g>
</svg>
