<svg width="22" height="22" viewBox="0 0 22 22" fill="none" xmlns="http://www.w3.org/2000/svg">
<path id="Vector" d="M13.2798 10.6283L20.7017 3.20638C21.0539 2.85476 21.2521 2.37761 21.2525 1.87991C21.2529 1.38221 21.0557 0.904712 20.704 0.552471C20.3524 0.200231 19.8753 0.00209714 19.3776 0.00165761C18.8799 0.00121807 18.4024 0.198509 18.0501 0.550128L10.6283 7.972L3.20638 0.550128C2.85414 0.197887 2.3764 0 1.87825 0C1.38011 0 0.902368 0.197887 0.550128 0.550128C0.197887 0.902368 0 1.38011 0 1.87825C0 2.3764 0.197887 2.85414 0.550128 3.20638L7.972 10.6283L0.550128 18.0501C0.197887 18.4024 0 18.8801 0 19.3783C0 19.8764 0.197887 20.3541 0.550128 20.7064C0.902368 21.0586 1.38011 21.2565 1.87825 21.2565C2.3764 21.2565 2.85414 21.0586 3.20638 20.7064L10.6283 13.2845L18.0501 20.7064C18.4024 21.0586 18.8801 21.2565 19.3783 21.2565C19.8764 21.2565 20.3541 21.0586 20.7064 20.7064C21.0586 20.3541 21.2565 19.8764 21.2565 19.3783C21.2565 18.8801 21.0586 18.4024 20.7064 18.0501L13.2798 10.6283Z" fill="black"/>
</svg>
