<svg width="27" height="33" viewBox="0 0 27 33" fill="none" xmlns="http://www.w3.org/2000/svg">
<g id="Group">
<path id="Vector" d="M15.6667 21H5.66667C5.22464 21 4.80072 21.1731 4.48816 21.4812C4.1756 21.7894 4 22.2073 4 22.6431C4 23.0788 4.1756 23.4968 4.48816 23.8049C4.80072 24.113 5.22464 24.2861 5.66667 24.2861H15.6667C16.1087 24.2861 16.5326 24.113 16.8452 23.8049C17.1577 23.4968 17.3333 23.0788 17.3333 22.6431C17.3333 22.2073 17.1577 21.7894 16.8452 21.4812C16.5326 21.1731 16.1087 21 15.6667 21Z" fill="#231F20"/>
<path id="Vector_2" d="M10.6667 18.2861H15.6667C16.1087 18.2861 16.5326 18.113 16.8452 17.8049C17.1577 17.4968 17.3333 17.0788 17.3333 16.6431C17.3333 16.2073 17.1577 15.7894 16.8452 15.4812C16.5326 15.1731 16.1087 15 15.6667 15H10.6667C10.2246 15 9.80072 15.1731 9.48816 15.4812C9.1756 15.7894 9 16.2073 9 16.6431C9 17.0788 9.1756 17.4968 9.48816 17.8049C9.80072 18.113 10.2246 18.2861 10.6667 18.2861Z" fill="#231F20"/>
<path id="Vector_3" d="M26.2333 10.4009L17.1667 0.542508C17.0108 0.372299 16.8206 0.236124 16.6082 0.142742C16.3958 0.0493601 16.1659 0.000837645 15.9333 0.000295713H4.26667C3.71292 -0.00621592 3.16329 0.0948708 2.64917 0.297784C2.13505 0.500696 1.66651 0.801461 1.2703 1.1829C0.874098 1.56434 0.55799 2.01899 0.34003 2.52087C0.12207 3.02276 0.00652729 3.56206 0 4.10797V28.754C0.00652729 29.2999 0.12207 29.8392 0.34003 30.3411C0.55799 30.843 0.874098 31.2976 1.2703 31.6791C1.66651 32.0605 2.13505 32.3613 2.64917 32.5642C3.16329 32.7671 3.71292 32.8682 4.26667 32.8617H22.4C22.9538 32.8682 23.5034 32.7671 24.0175 32.5642C24.5316 32.3613 25.0002 32.0605 25.3964 31.6791C25.7926 31.2976 26.1087 30.843 26.3266 30.3411C26.5446 29.8392 26.6601 29.2999 26.6667 28.754V11.5018C26.6656 11.0946 26.5112 10.7023 26.2333 10.4009ZM16.6667 4.9295L21.2333 9.85871H17.9C17.7255 9.84832 17.5548 9.80376 17.3979 9.72764C17.241 9.65152 17.1011 9.54536 16.9863 9.41535C16.8715 9.28534 16.7841 9.13409 16.7292 8.97042C16.6743 8.80675 16.6531 8.63395 16.6667 8.4621V4.9295ZM22.4 29.5755H4.26667C4.15062 29.5822 4.03439 29.5662 3.92462 29.5285C3.81486 29.4908 3.71373 29.4321 3.62702 29.3558C3.54031 29.2794 3.46974 29.187 3.41934 29.0837C3.36894 28.9805 3.33972 28.8684 3.33333 28.754V4.10797C3.33972 3.99355 3.36894 3.88149 3.41934 3.77823C3.46974 3.67497 3.54031 3.58253 3.62702 3.50621C3.71373 3.42988 3.81486 3.37118 3.92462 3.33347C4.03439 3.29576 4.15062 3.27977 4.26667 3.28643H13.3333V8.4621C13.3064 9.67242 13.7663 10.8441 14.6124 11.7214C15.4586 12.5987 16.6225 13.1104 17.85 13.1448H23.3333V28.754C23.327 28.8684 23.2977 28.9805 23.2473 29.0837C23.1969 29.187 23.1264 29.2794 23.0396 29.3558C22.9529 29.4321 22.8518 29.4908 22.742 29.5285C22.6323 29.5662 22.516 29.5822 22.4 29.5755Z" fill="#231F20"/>
</g>
</svg>
