<svg width="15" height="16" viewBox="0 0 15 16" fill="none" xmlns="http://www.w3.org/2000/svg">
<g id="icons/ic/more_vert-default">
<path id="Shape" fill-rule="evenodd" clip-rule="evenodd" d="M7.5 5.5C8.1875 5.5 8.75 4.9375 8.75 4.25C8.75 3.5625 8.1875 3 7.5 3C6.8125 3 6.25 3.5625 6.25 4.25C6.25 4.9375 6.8125 5.5 7.5 5.5ZM7.50003 6.75003C6.81253 6.75003 6.25003 7.31253 6.25003 8.00003C6.25003 8.68753 6.81253 9.25003 7.50003 9.25003C8.18753 9.25003 8.75003 8.68753 8.75003 8.00003C8.75003 7.31253 8.18753 6.75003 7.50003 6.75003ZM7.50003 10.5C6.81253 10.5 6.25003 11.0625 6.25003 11.75C6.25003 12.4375 6.81253 13 7.50003 13C8.18753 13 8.75003 12.4375 8.75003 11.75C8.75003 11.0625 8.18753 10.5 7.50003 10.5Z" fill="black" fill-opacity="0.87"/>
</g>
</svg>
