<svg width="40" height="38" viewBox="0 0 40 38" fill="none" xmlns="http://www.w3.org/2000/svg">
<path id="Vector" d="M35.2939 8.29906L36.1256 5.57254C36.2016 5.32383 36.3259 5.09253 36.4914 4.89186C36.6568 4.69118 36.8602 4.52506 37.0898 4.40298C37.3195 4.28089 37.5709 4.20523 37.8298 4.18032C38.0887 4.15541 38.3499 4.18174 38.5987 4.25779C38.8474 4.33385 39.0787 4.45815 39.2793 4.62359C39.48 4.78904 39.6461 4.99239 39.7682 5.22203C39.8903 5.45168 39.966 5.70312 39.9909 5.96201C40.0158 6.22089 39.9895 6.48215 39.9134 6.73086L37.5967 14.3045C37.4432 14.8064 37.0967 15.2269 36.6333 15.4734C36.17 15.7199 35.6277 15.7724 35.1256 15.6193L27.5519 13.3026C27.2979 13.2311 27.0609 13.1097 26.8546 12.9453C26.6482 12.7809 26.4769 12.577 26.3505 12.3455C26.224 12.114 26.1452 11.8595 26.1185 11.5971C26.0918 11.3347 26.1178 11.0696 26.1949 10.8173C26.2721 10.5651 26.3989 10.3308 26.5679 10.1283C26.7369 9.92572 26.9446 9.75897 27.1789 9.63782C27.4132 9.51666 27.6694 9.44355 27.9323 9.42276C28.1953 9.40198 28.4598 9.43394 28.7102 9.51678L32.0209 10.5286C30.5573 8.30875 28.5159 6.53024 26.1164 5.3846C23.717 4.23896 21.0505 3.7696 18.4041 4.02707C15.7576 4.28454 13.2316 5.25908 11.098 6.84573C8.96439 8.43239 7.30406 10.571 6.29583 13.0314L5.78101 14.2847C5.68739 14.5321 5.54513 14.7583 5.36264 14.9498C5.18015 15.1413 4.96114 15.2943 4.71853 15.3998C4.47592 15.5053 4.21464 15.561 3.95012 15.5639C3.68559 15.5667 3.42318 15.5164 3.17839 15.4161C2.9336 15.3158 2.71139 15.1675 2.52488 14.9799C2.33837 14.7923 2.19135 14.5692 2.09249 14.3238C1.99364 14.0785 1.94495 13.8158 1.94931 13.5513C1.95368 13.2868 2.011 13.0258 2.11789 12.7838L2.63271 11.5305C3.91229 8.40851 6.01807 5.69402 8.72395 3.67847C11.4298 1.66293 14.6336 0.42246 17.9913 0.0902597C21.3489 -0.241941 24.7337 0.346675 27.7821 1.7929C30.8305 3.23913 33.4274 5.48835 35.2939 8.29906ZM4.55931 29.3132L3.91183 31.9091C3.8539 32.1665 3.74509 32.4098 3.5918 32.6246C3.43851 32.8394 3.24383 33.0213 3.01921 33.1598C2.79458 33.2983 2.54454 33.3905 2.28378 33.431C2.02302 33.4715 1.7568 33.4594 1.50076 33.3955C1.24473 33.3316 1.00404 33.2172 0.792851 33.059C0.581661 32.9008 0.404228 32.702 0.270979 32.4742C0.13773 32.2464 0.0513528 31.9943 0.0169245 31.7327C-0.0175038 31.4711 0.00071116 31.2052 0.0704988 30.9507L1.98522 23.2682C2.04982 23.0066 2.16713 22.7609 2.32996 22.5463C2.49279 22.3316 2.69772 22.1524 2.9322 22.0197C3.16668 21.887 3.42579 21.8035 3.69365 21.7744C3.96151 21.7453 4.23249 21.7712 4.49001 21.8505L12.0697 23.7394C12.5794 23.8665 13.0177 24.1908 13.2882 24.6411C13.5587 25.0913 13.6393 25.6306 13.5122 26.1402C13.3851 26.6499 13.0608 27.0882 12.6105 27.3587C12.1603 27.6292 11.621 27.7098 11.1114 27.5827L7.57496 26.7016C9.08677 29.0159 11.2237 30.8542 13.738 32.0033C16.2523 33.1524 19.0408 33.5652 21.7801 33.1938C24.5195 32.8224 27.0974 31.6819 29.2149 29.9048C31.3323 28.1277 32.9026 25.7867 33.7435 23.1533C33.9032 22.6529 34.2551 22.2363 34.7219 21.9953C34.953 21.876 35.2053 21.8034 35.4645 21.7816C35.7237 21.7598 35.9847 21.7892 36.2325 21.8683C36.4803 21.9473 36.7101 22.0744 36.9088 22.2423C37.1075 22.4101 37.2712 22.6155 37.3905 22.8466C37.5098 23.0777 37.5825 23.3301 37.6043 23.5893C37.6261 23.8484 37.5966 24.1094 37.5175 24.3572C36.6932 26.943 35.3123 29.3168 33.4718 31.3116C31.6313 33.3063 29.3761 34.8735 26.8648 35.9028C22.9518 37.5058 18.6091 37.7265 14.5538 36.5285C10.4985 35.3304 6.97295 32.7853 4.55931 29.3132Z" fill="black"/>
</svg>
