<svg width="55" height="51" viewBox="0 0 55 51" fill="none" xmlns="http://www.w3.org/2000/svg">
<g id="&#240;&#159;&#166;&#134; icon &#34;cloud upload&#34;">
<path id="Vector" d="M37.8397 28.6247L27.5052 19.0889L17.1707 28.6247L19.7633 31.017L25.6718 25.5651V50.9602H29.3385V25.5651L35.247 31.017L37.8397 28.6247Z" fill="white"/>
<path id="Vector_2" d="M44 15.5894V15.4358C44 7.04098 36.5979 0.210938 27.5 0.210938C18.4021 0.210938 11 7.04098 11 15.4358V15.6992C8.28451 16.172 5.78118 17.3752 3.80485 19.1574C2.60215 20.2345 1.64575 21.5233 0.992223 22.9474C0.338691 24.3715 0.00129845 25.902 0 27.4486C0 30.7387 1.46529 33.8728 4.12615 36.2736C6.72604 38.6194 10.2366 39.9648 13.758 39.9648H21.0833V36.5815H13.758C8.38223 36.5815 3.66667 32.3137 3.66667 27.4486C3.66667 22.9796 7.75042 19.2106 12.9636 18.8682L14.6667 18.7562V15.4358C14.6667 12.2952 16.0187 9.28328 18.4255 7.06256C20.8322 4.84183 24.0964 3.59424 27.5 3.59424C30.9036 3.59424 34.1678 4.84183 36.5745 7.06256C38.9813 9.28328 40.3333 12.2952 40.3333 15.4358V18.8233L42.1437 18.8445C47.4687 18.9067 51.3333 22.5252 51.3333 27.4486C51.3333 32.5698 47.248 36.5815 42.0326 36.5815H33.9167V39.9648H42.0326C43.7795 39.9701 45.5084 39.6395 47.1091 38.9941C48.7099 38.3487 50.1473 37.4027 51.3299 36.2163C53.6966 33.8684 55 30.7547 55 27.4486C55 21.2701 50.3841 16.4288 44 15.5894Z" fill="white"/>
</g>
</svg>
